<?xml version="1.0" standalone="no"?>
<!DOCTYPE svg PUBLIC "-//W3C//DTD SVG 20010904//EN"
 "http://www.w3.org/TR/2001/REC-SVG-20010904/DTD/svg10.dtd">
<svg version="1.0" xmlns="http://www.w3.org/2000/svg"
 width="803.000000pt" height="803.000000pt" viewBox="0 0 803.000000 803.000000"
 preserveAspectRatio="xMidYMid meet">
<metadata>
Created by potrace 1.11, written by Peter Selinger 2001-2013
</metadata>
<g transform="translate(0.000000,803.000000) scale(0.100000,-0.100000)"
fill="#000000" stroke="none">
<path d="M1531 5226 c-8 -9 -22 -16 -32 -16 -11 0 -19 -4 -19 -10 0 -5 -5 -10
-10 -10 -6 0 -28 -11 -50 -25 -22 -14 -40 -22 -40 -18 0 5 -4 4 -8 -2 -7 -10
-36 -27 -113 -67 -24 -13 -50 -29 -57 -35 -7 -7 -19 -13 -27 -13 -7 0 -15 -3
-17 -7 -1 -5 -30 -21 -63 -38 -33 -16 -61 -33 -63 -37 -2 -5 -10 -8 -18 -8 -8
0 -14 -4 -14 -8 0 -8 -60 -36 -72 -33 -5 0 -8 -3 -8 -8 0 -5 -13 -14 -28 -20
-33 -14 -62 -58 -62 -95 0 -42 27 -72 98 -113 132 -75 147 -83 165 -89 9 -4
17 -10 17 -15 0 -5 5 -9 11 -9 14 0 302 -161 311 -175 4 -5 8 -7 8 -2 0 4 18
-4 39 -19 22 -14 48 -27 58 -29 10 -2 18 -4 18 -5 0 -9 46 -6 70 6 28 13 75
72 75 94 0 5 5 10 10 10 6 0 10 6 10 13 0 6 20 42 44 80 25 37 42 67 38 67 -4
0 -2 4 4 8 6 4 22 27 35 50 13 24 32 58 41 75 31 55 23 80 -78 242 -14 22 -27
48 -31 58 -3 9 -9 17 -14 17 -5 0 -9 7 -9 15 0 8 -4 15 -8 15 -5 0 -14 16 -22
35 -8 19 -17 35 -22 35 -4 0 -8 6 -8 13 0 8 -9 22 -20 32 -11 10 -20 23 -20
30 0 6 -6 12 -12 13 -88 13 -95 13 -107 -2z m58 -298 c60 -104 65 -112 72
-118 17 -14 14 -39 -9 -80 -14 -25 -28 -47 -31 -50 -3 -3 -13 -18 -21 -35 -8
-16 -23 -39 -32 -49 -10 -11 -18 -26 -18 -33 0 -11 -7 -10 -32 3 -18 9 -36 22
-40 28 -4 6 -8 8 -8 3 0 -4 -17 3 -37 16 -21 12 -51 29 -68 37 -16 8 -36 21
-43 27 -7 7 -24 16 -38 19 -13 3 -24 9 -24 13 0 4 -16 13 -35 21 -19 8 -35 17
-35 21 0 4 -12 10 -27 14 -27 6 -27 6 20 36 26 16 51 29 57 29 5 0 10 5 10 12
0 6 3 8 6 5 4 -4 19 2 34 13 16 11 31 20 34 20 2 0 31 15 63 34 106 62 148 85
154 86 3 0 24 -33 48 -72z"/>
<path d="M6480 5205 c-16 -5 -40 -23 -52 -39 -13 -16 -31 -36 -40 -45 -10 -8
-18 -20 -18 -25 0 -5 -20 -33 -45 -62 -25 -28 -45 -57 -45 -64 0 -6 -4 -8 -10
-5 -5 3 -10 -1 -10 -9 0 -9 -4 -16 -10 -16 -5 0 -10 -7 -10 -15 0 -8 -3 -15
-7 -15 -17 0 -77 -102 -78 -133 -1 -27 21 -74 45 -97 3 -3 38 -48 78 -100 40
-52 87 -112 105 -134 17 -21 34 -43 36 -49 6 -17 23 -31 51 -43 29 -12 619
-12 663 0 33 10 61 58 58 100 -1 26 -29 72 -66 112 -5 6 -17 22 -25 34 -8 12
-20 28 -25 34 -6 6 -34 42 -63 79 l-53 69 31 31 c16 17 30 35 30 40 0 5 8 17
18 26 10 9 29 32 42 51 13 19 27 37 30 40 28 25 79 105 85 136 5 21 -24 73
-50 90 -23 15 -60 17 -331 18 -179 1 -316 -3 -334 -9z m300 -198 c71 1 90 -2
90 -12 0 -8 -6 -18 -13 -22 -7 -4 -23 -25 -37 -45 -14 -21 -28 -38 -32 -38 -5
0 -8 -4 -8 -10 0 -5 -10 -21 -22 -35 -30 -35 -34 -95 -8 -123 11 -12 20 -24
20 -28 0 -6 36 -51 74 -94 7 -8 18 -24 24 -36 10 -19 8 -21 -16 -18 -15 1 -29
3 -32 4 -12 5 -36 5 -45 -1 -12 -8 -62 -6 -71 4 -4 3 -14 3 -23 -2 -21 -10
-82 -8 -100 3 -10 6 -12 6 -6 -3 18 -30 -33 14 -56 47 -13 20 -29 40 -35 46
-6 6 -32 40 -58 75 l-47 64 28 31 c15 17 31 32 36 34 4 2 7 10 7 18 0 8 7 17
15 20 8 4 15 12 15 19 0 7 3 15 8 17 4 2 22 22 39 44 31 40 35 42 88 42 31 0
59 3 63 6 3 4 8 4 9 -1 2 -5 44 -8 93 -6z"/>
<path d="M2221 4866 c-57 -31 -67 -107 -22 -158 l28 -32 1783 0 c1691 -1 1783
0 1810 17 63 40 62 134 -1 169 -29 17 -135 18 -1802 18 -1450 -1 -1776 -3
-1796 -14z"/>
<path d="M3988 4449 c-10 -5 -18 -7 -18 -4 0 4 -8 -1 -17 -11 -10 -10 -16 -20
-15 -22 2 -3 -2 -8 -8 -12 -17 -11 -18 -306 -1 -347 34 -83 174 -66 186 23 11
72 12 104 2 104 -5 0 -5 5 2 13 8 10 7 17 -1 25 -9 9 -9 12 1 12 10 0 11 3 2
13 -6 8 -9 16 -6 18 10 11 12 79 1 79 -6 0 -5 4 3 9 9 6 10 11 2 15 -6 4 -11
15 -11 25 0 20 -43 64 -53 54 -4 -3 -7 -2 -7 3 0 13 -41 15 -62 3z"/>
<path d="M2653 4160 c-39 -16 -77 -100 -51 -116 4 -3 6 -9 3 -13 -11 -19 85
-77 160 -95 23 -5 61 -18 80 -26 11 -5 81 -29 155 -54 74 -26 142 -49 150 -53
8 -3 21 -5 28 -4 6 1 12 -3 12 -9 0 -5 8 -10 17 -10 22 0 86 -23 94 -33 3 -5
10 -8 15 -7 5 0 18 -2 29 -6 11 -3 25 -7 31 -9 16 -4 135 -45 162 -56 12 -5
32 -13 45 -18 12 -6 37 -13 55 -16 17 -4 32 -11 32 -16 0 -6 10 -8 23 -4 22 6
22 6 2 -10 -11 -9 -28 -14 -38 -11 -11 2 -16 2 -13 -1 3 -4 -18 -14 -47 -24
-28 -10 -59 -22 -67 -27 -8 -5 -23 -8 -32 -6 -10 1 -18 -3 -18 -9 0 -5 -3 -7
-7 -4 -3 4 -13 1 -21 -5 -8 -7 -20 -13 -26 -13 -16 -1 -99 -27 -111 -35 -5 -4
-50 -20 -100 -36 -49 -16 -93 -33 -97 -39 -4 -5 -8 -7 -8 -3 0 6 -55 -9 -100
-29 -8 -3 -19 -7 -25 -9 -5 -1 -61 -20 -124 -43 -63 -22 -118 -38 -122 -35 -5
3 -9 0 -9 -5 0 -6 -5 -11 -12 -11 -6 0 -32 -10 -56 -21 -57 -28 -80 -75 -61
-123 13 -31 47 -63 62 -58 4 1 7 -2 7 -7 0 -5 15 -7 33 -4 17 2 38 4 45 5 6 1
12 6 12 11 0 5 6 7 14 4 7 -3 17 -2 22 3 7 6 65 28 94 35 3 1 13 5 23 8 9 4
25 10 35 14 9 3 20 7 25 8 4 2 9 4 12 5 8 4 24 7 41 9 9 0 12 6 8 13 -4 6 -3
8 3 5 6 -4 55 9 109 29 55 20 106 37 114 39 8 2 16 4 18 5 1 2 5 3 10 5 4 1
14 4 22 8 8 3 65 22 125 43 61 20 116 41 123 47 6 5 12 7 12 3 0 -3 17 1 38
10 20 9 42 17 47 18 6 1 20 8 33 14 12 7 22 10 22 7 0 -4 14 0 95 31 11 4 25
8 30 9 6 2 34 12 62 24 47 18 64 23 123 35 8 2 24 0 35 -5 19 -7 40 -14 57
-18 4 -1 36 -14 70 -27 35 -14 74 -28 88 -30 14 -3 27 -9 28 -15 2 -5 8 -6 13
-3 6 3 15 1 22 -4 7 -5 27 -13 45 -17 17 -3 32 -11 32 -15 0 -5 7 -7 15 -4 8
4 21 2 28 -3 6 -6 44 -21 82 -34 39 -13 71 -27 73 -30 2 -4 12 -5 22 -2 11 3
20 0 20 -6 0 -6 3 -10 8 -10 14 3 73 -14 78 -22 3 -5 13 -9 22 -9 10 0 34 -8
55 -19 20 -10 34 -14 30 -7 -4 6 1 4 12 -4 10 -8 21 -14 24 -14 3 1 11 0 16
-2 437 -153 458 -159 463 -146 2 6 9 9 16 6 24 -9 86 83 68 101 -4 4 -7 10 -7
13 -3 30 -22 53 -60 71 -25 12 -51 21 -59 21 -8 0 -18 5 -21 10 -4 6 -12 10
-18 9 -7 -1 -19 1 -27 4 -49 21 -180 65 -180 60 0 -3 -6 -1 -12 5 -7 5 -42 19
-78 31 -36 13 -72 25 -80 28 -8 3 -24 8 -34 10 -11 2 -24 7 -30 12 -12 9 -67
25 -78 23 -5 -1 -8 2 -8 8 0 6 -3 9 -7 8 -10 -3 -113 31 -213 69 -8 4 -17 7
-20 8 -56 15 -180 61 -180 66 0 5 9 6 20 4 11 -2 20 0 20 6 0 5 8 9 18 9 10 0
22 3 26 7 3 4 12 8 19 9 7 2 28 8 47 15 19 7 42 14 50 17 8 3 17 6 20 7 3 1
13 5 22 9 9 4 25 9 35 11 10 2 20 4 23 5 3 1 8 2 13 1 4 0 7 4 7 11 0 6 3 9 6
5 4 -3 19 0 35 8 15 8 36 16 46 18 10 1 24 6 31 10 6 5 17 5 22 2 6 -3 10 -2
10 2 0 5 21 15 48 22 26 8 52 17 57 22 6 4 22 10 36 12 13 3 42 13 64 22 22 9
45 18 50 19 6 1 35 11 65 21 30 11 57 20 60 20 3 1 14 5 25 9 45 17 50 19 58
21 4 2 10 4 15 5 4 2 12 4 17 5 6 2 20 6 32 10 12 4 24 6 25 4 2 -2 10 2 18 9
8 7 24 20 35 30 24 20 47 67 37 77 -4 4 -7 10 -7 13 -2 25 -19 50 -44 65 -34
20 -91 23 -91 5 0 -9 -4 -8 -10 2 -5 8 -10 10 -10 4 0 -10 -22 -20 -55 -25 -5
0 -18 -5 -28 -11 -10 -5 -26 -11 -35 -13 -9 -2 -30 -9 -47 -16 -16 -6 -34 -13
-40 -15 -5 -1 -55 -18 -110 -38 -55 -20 -102 -37 -105 -37 -3 -1 -16 -6 -30
-11 -14 -5 -37 -12 -52 -15 -16 -3 -28 -9 -28 -13 0 -3 -6 -7 -13 -7 -7 0 -73
-21 -147 -48 -74 -27 -140 -48 -147 -48 -7 0 -13 -3 -13 -7 0 -7 -100 -35
-112 -32 -5 1 -8 -2 -8 -7 0 -5 -15 -13 -32 -16 -18 -4 -38 -12 -45 -17 -7 -5
-17 -7 -23 -3 -5 3 -10 2 -10 -3 0 -5 -6 -9 -12 -9 -20 -1 -143 -47 -146 -55
-2 -3 -17 -2 -35 3 -18 6 -39 12 -47 14 -30 9 -145 50 -155 56 -5 4 -25 10
-42 14 -18 3 -33 11 -33 16 0 6 -4 8 -9 4 -5 -3 -20 -1 -33 4 -30 12 -61 24
-70 26 -5 2 -10 4 -13 5 -3 1 -8 3 -12 4 -5 1 -12 4 -18 7 -5 4 -34 12 -62 20
-29 7 -53 16 -53 19 0 3 -24 12 -52 19 -29 8 -57 17 -63 21 -9 7 -67 23 -73
21 -1 -1 -15 5 -30 12 -15 8 -97 38 -182 67 -85 29 -161 57 -167 63 -7 5 -13
6 -13 3 0 -4 -9 -2 -21 4 -11 7 -32 14 -47 16 -14 3 -30 8 -36 12 -27 17 -96
24 -123 12z"/>
</g>
</svg>
